#N canvas 1219 10 634 606 12;
#X declare -lib mrpeach;
#X obj 14 14 import mrpeach;
#X obj 234 30 dumpOSC 9000;
#X obj 127 14 OSC;
#X obj 234 89 unpack i;
#X obj 313 105 unpack i;
#N canvas 771 326 535 551 RobotControl 0;
#X obj -7984 18 inlet;
#X obj -7607 16 inlet;
#X obj -7790 16 inlet;
#X msg -7790 217 disconnect;
#X obj -7758 434 udpsend;
#X obj -7679 394 packOSC;
#X msg -7984 218 connect 127.0.0.1 20000;
#X obj -7689 16 inlet;
#X obj -7689 293 packOSC;
#X msg -7607 306 send /motors \$1 \$2;
#X connect 0 0 6 0;
#X connect 1 0 9 0;
#X connect 2 0 3 0;
#X connect 3 0 4 0;
#X connect 5 0 4 0;
#X connect 6 0 4 0;
#X connect 7 0 8 0;
#X connect 8 0 4 0;
#X connect 9 0 5 0;
#X restore 91 531 pd RobotControl;
#X obj 91 509 bng 15 250 50 0 empty empty empty 17 7 0 10 -262144 -1
-1;
#X obj 125 509 bng 15 250 50 0 empty empty empty 17 7 0 10 -262144
-1 -1;
#X text 224 401 control both wheels;
#X msg 243 479 0 0;
#X msg 224 426 -63 -45;
#N canvas 628 25 990 606 Circle 0;
#X obj 30 19 inlet;
#X obj 847 43 inlet;
#X obj 369 553 outlet;
#X floatatom 521 137 10 0 0 0 - - -;
#X msg 847 174 \$1;
#X obj 847 111 spigot;
#X obj 886 81 tgl 15 0 empty empty empty 17 7 0 10 -262144 -1 -1 0
28;
#X floatatom 847 143 10 0 0 0 - - -;
#X obj 521 228 expr $f1 \; $f2 \; if ($f1 >= $f2 - 34 && $f1 <= $f2
+ 34 \, $f1 \, 1);
#X obj 763 333 value calculated speed;
#X floatatom 30 220 10 0 0 0 - - -;
#X obj 813 111 bng 15 250 50 0 empty empty empty 17 7 0 10 -262144
-1 -1;
#X obj 30 188 expr (63*$f1)/($f1+13);
#X obj 30 84 textfile;
#X msg 30 116 \$1;
#X obj 369 451 spigot;
#X obj 408 407 tgl 15 0 /motors empty empty 17 7 0 10 -262144 -1 -1
0 22;
#X msg 30 251 send /motors 63 \$1;
#X text 433 406 <-- if not inhibited \, keep controlling;
#X obj 408 19 inlet;
#X msg 30 52 read radius.txt \, rewind \, bang;
#X text 525 17 take initial reading then update every other reading
;
#X obj -23 437 value left motor;
#X obj 16 478 value right motor;
#X obj -23 410 unpack;
#X obj 44 380 bng 15 250 50 0 empty empty empty 17 7 0 10 -262144 -1
-1;
#X obj -23 528 print;
#X msg -23 345 63 \$1;
#X connect 0 0 20 0;
#X connect 1 0 5 0;
#X connect 1 0 3 0;
#X connect 3 0 8 0;
#X connect 4 0 8 1;
#X connect 5 0 7 0;
#X connect 5 0 11 0;
#X connect 6 0 5 1;
#X connect 7 0 4 0;
#X connect 8 0 7 0;
#X connect 8 2 9 0;
#X connect 10 0 17 0;
#X connect 10 0 27 0;
#X connect 11 0 6 0;
#X connect 12 0 10 0;
#X connect 13 0 14 0;
#X connect 14 0 12 0;
#X connect 15 0 2 0;
#X connect 16 0 15 1;
#X connect 16 0 20 0;
#X connect 17 0 15 0;
#X connect 19 0 16 0;
#X connect 20 0 13 0;
#X connect 22 0 26 0;
#X connect 23 0 26 0;
#X connect 24 0 22 0;
#X connect 24 1 23 0;
#X connect 25 0 22 0;
#X connect 25 0 23 0;
#X connect 27 0 24 0;
#X restore 284 238 pd Circle Motion;
#N canvas 377 10 822 903 Avoidance 1;
#X obj -7367 20 inlet;
#X obj -7367 20 inlet;
#X floatatom -7367 266 5 0 0 0 - - -;
#X obj -7367 167 bng 15 250 50 0 empty empty empty 17 7 0 10 -262144
-1 -1;
#X obj -7367 226 counter;
#X obj -7225 305 bng 15 250 50 0 empty empty empty 17 7 0 10 -262144
-1 -1;
#X obj -7367 384 sel 0 1 2 3;
#X obj -7367 305 % 4;
#X text -7225 267 Recursive calls to different steps;
#X floatatom -7367 345 5 0 0 0 - - -;
#X msg -7349 657 send /motors -50 -50;
#X obj -7337 843 outlet;
#X msg -7410 577 send /motors 0 0;
#X obj -7225 340 delay 1000;
#X msg -7161 615 send /motors 0 35;
#X obj -7258 18 inlet;
#X text -7189 96 <-- Suppression point;
#X floatatom -7367 60 5 0 0 0 - - -;
#X obj -7367 99 moses 1;
#X msg -7190 489 send /motors 0 0;
#X obj -7174 843 outlet;
#X obj -7258 95 moses 22;
#X obj -7157 218 print;
#X obj -7157 180 value Current Range;
#X obj -7157 118 tgl 15 0 empty empty empty 17 7 0 10 -262144 -1 -1
0 1;
#X obj -7157 142 metro 10;
#X obj -6896 287 metro 10;
#X obj -6896 312 value Current Range;
#X obj -6896 435 print;
#X obj -6896 241 tgl 15 0 empty empty empty 17 7 0 10 -262144 -1 -1
0 1;
#X msg -6861 384 send /motors \$1 \$2;
#X obj -6896 338 moses 70;
#X connect 0 0 17 0;
#X connect 2 0 7 0;
#X connect 3 0 4 0;
#X connect 4 0 2 0;
#X connect 5 0 13 0;
#X connect 6 0 5 0;
#X connect 6 0 12 0;
#X connect 6 0 20 0;
#X connect 6 1 5 0;
#X connect 6 1 10 0;
#X connect 6 2 5 0;
#X connect 6 2 14 0;
#X connect 6 3 19 0;
#X connect 6 3 20 0;
#X connect 7 0 9 0;
#X connect 9 0 6 0;
#X connect 10 0 11 0;
#X connect 12 0 11 0;
#X connect 13 0 3 0;
#X connect 14 0 11 0;
#X connect 15 0 21 0;
#X connect 17 0 18 0;
#X connect 18 1 3 0;
#X connect 19 0 11 0;
#X connect 21 0 3 0;
#X connect 23 0 22 0;
#X connect 24 0 25 0;
#X connect 25 0 23 0;
#X connect 26 0 27 0;
#X connect 27 0 31 0;
#X connect 29 0 26 0;
#X connect 31 0 28 0;
#X connect 31 0 30 0;
#X restore 159 330 pd Avoidance Behaviour;
#X obj 393 126 unpack i;
#X text 425 13 Subsumption case study v0.3;
#X obj 473 163 print;
#X obj 259 193 bng 15 250 50 0 empty empty empty 17 7 0 10 -262144
-1 -1;
#X text 173 192 Start robot;
#X obj 473 123 unpack i i;
#X text 105 57 [intensity level];
#X text 213 530 [intensity level];
#X obj 234 57 OSCroute /light /ultrasound /gyro /motor_state;
#X obj 234 143 value Current Range;
#X obj 52 42 vsl 15 128 0 127 0 0 empty empty empty 0 -9 0 10 -262144
-1 -1 12700 1;
#X msg 243 452 63 23;
#X connect 1 0 21 0;
#X connect 3 0 22 0;
#X connect 6 0 5 0;
#X connect 7 0 5 1;
#X connect 9 0 5 3;
#X connect 10 0 5 3;
#X connect 13 0 11 2;
#X connect 16 0 11 0;
#X connect 18 0 15 0;
#X connect 18 1 15 0;
#X connect 21 0 3 0;
#X connect 21 1 4 0;
#X connect 21 2 13 0;
#X connect 21 3 18 0;
#X connect 23 0 22 0;
#X connect 24 0 5 3;
