#N canvas 1258 8 634 606 12;
#X declare -lib mrpeach;
#X obj 14 14 import mrpeach;
#X obj 234 30 dumpOSC 9000;
#X obj 127 14 OSC;
#X obj 234 80 unpack i;
#N canvas 235 10 961 551 RobotControl 0;
#X obj -7956 -9 inlet;
#X obj -7193 -22 inlet;
#X obj -7746 -10 inlet;
#X msg -7746 191 disconnect;
#X obj -7746 467 udpsend;
#X obj -7265 356 packOSC;
#X msg -7956 191 connect 127.0.0.1 20000;
#X obj -7505 -9 inlet;
#X obj -7505 268 packOSC;
#X msg -7193 268 send /motors \$1 \$2;
#X connect 0 0 6 0;
#X connect 1 0 9 0;
#X connect 2 0 3 0;
#X connect 3 0 4 0;
#X connect 5 0 4 0;
#X connect 6 0 4 0;
#X connect 7 0 8 0;
#X connect 8 0 4 0;
#X connect 9 0 5 0;
#X restore 257 530 pd RobotControl;
#X obj 257 508 bng 15 250 50 0 empty empty empty 17 7 0 10 -262144
-1 -1;
#X obj 291 508 bng 15 250 50 0 empty empty empty 17 7 0 10 -262144
-1 -1;
#X text 390 400 control both wheels;
#X msg 409 478 0 0;
#X msg 390 425 -63 -45;
#N canvas 98 19 492 606 Circle 0;
#X obj 30 19 inlet;
#X obj 234 550 outlet;
#X floatatom 214 290 10 0 0 0 - - -;
#X obj 214 264 expr (63*$f1)/($f1+13);
#X obj 214 154 textfile;
#X msg 214 186 \$1;
#X msg 214 122 read radius.txt \, rewind \, bang;
#X obj 214 340 value Circle Motion reference;
#X obj 30 86 unpack i i;
#X msg 214 315 63 \$2;
#X connect 0 0 8 0;
#X connect 2 0 9 0;
#X connect 3 0 2 0;
#X connect 4 0 5 0;
#X connect 5 0 3 0;
#X connect 6 0 4 0;
#X connect 9 0 7 0;
#X restore 414 198 pd Circle Motion;
#N canvas 422 8 721 724 Avoidance 0;
#X obj -7236 679 outlet;
#X floatatom -7034 107 10 0 0 0 - - -;
#X obj -7077 254 expr $f1 \; if ($f1 <= 65 && $f1 > 60 \, $f1 \, 0)
;
#X obj -7121 325 expr $f1 \; if ($f1 <= 60 && $f1 > 50 \, $f1 \, 0)
;
#X obj -7176 402 expr $f1 \; if ($f1 <= 50 && $f1 > 40 \, $f1 \, 0)
;
#X obj -7213 484 expr $f1 \; if ($f1 <= 40 && $f1 >= 35 \, $f1 \, 0)
;
#X obj -7033 188 expr $f1 \; if ($f1 <= 75 && $f1 > 65 \, $f1 \, 0)
;
#X obj -6798 231 moses 1;
#X obj -6752 257 bng 15 250 50 0 empty empty empty 17 7 0 10 -262144
-1 -1;
#X obj -6842 297 moses 1;
#X obj -6796 323 bng 15 250 50 0 empty empty empty 17 7 0 10 -262144
-1 -1;
#X obj -6886 368 moses 1;
#X obj -6840 394 bng 15 250 50 0 empty empty empty 17 7 0 10 -262144
-1 -1;
#X obj -6941 448 moses 1;
#X obj -6895 474 bng 15 250 50 0 empty empty empty 17 7 0 10 -262144
-1 -1;
#X obj -6971 527 moses 1;
#X obj -6925 553 bng 15 250 50 0 empty empty empty 17 7 0 10 -262144
-1 -1;
#X msg -6752 278 send /motors 63 40;
#X msg -6796 344 send /motors 63 35.75;
#X msg -6840 415 send /motors 63 31.5;
#X msg -6895 496 send /motors 63 27.25;
#X msg -6925 574 send /motors 63 23;
#X obj -6670 682 print;
#X obj -7262 13 inlet;
#X connect 2 1 9 0;
#X connect 3 1 11 0;
#X connect 4 1 13 0;
#X connect 5 1 15 0;
#X connect 6 1 7 0;
#X connect 7 1 8 0;
#X connect 8 0 17 0;
#X connect 9 1 10 0;
#X connect 10 0 18 0;
#X connect 11 1 12 0;
#X connect 12 0 19 0;
#X connect 13 1 14 0;
#X connect 14 0 20 0;
#X connect 15 1 16 0;
#X connect 16 0 21 0;
#X connect 17 0 0 0;
#X connect 17 0 22 0;
#X connect 18 0 0 0;
#X connect 18 0 22 0;
#X connect 19 0 0 0;
#X connect 19 0 22 0;
#X connect 20 0 0 0;
#X connect 20 0 22 0;
#X connect 21 0 0 0;
#X connect 21 0 22 0;
#X connect 23 0 1 0;
#X connect 23 0 2 0;
#X connect 23 0 3 0;
#X connect 23 0 4 0;
#X connect 23 0 5 0;
#X connect 23 0 6 0;
#X restore 234 198 pd Avoidance Behaviour;
#X text 425 13 Subsumption case study v0.3;
#X text 379 529 [intensity level];
#X msg 409 451 63 23;
#X obj 234 57 OSCroute /ultrasound /gyro /motor_state;
#N canvas 698 8 537 727 systems 0;
#X obj -6889 21 inlet;
#X obj -6880 683 outlet;
#X obj -6934 191 value ojojoj;
#X obj -6743 239 print;
#X obj -6694 139 expr ojojoj \; if (ojojoj < 45 \, 1 \, 0);
#X obj -6743 201 spigot;
#X obj -6694 85 metro 20;
#X obj -6713 48 tgl 15 0 empty empty empty 17 7 0 10 -262144 -1 -1
0 1;
#X msg -6743 140 1150;
#X msg -6934 161 80;
#X connect 4 1 5 1;
#X connect 5 0 3 0;
#X connect 6 0 8 0;
#X connect 6 0 4 0;
#X connect 7 0 6 0;
#X connect 8 0 5 0;
#X connect 9 0 2 0;
#X restore 345 321 pd systems reorganisation;
#X text 153 151 ------------------------------------------------------------
;
#X text 156 266 ------------------------------------------------------------
;
#X text 43 209 [Sensation level];
#X text 24 73 [part of intensity level];
#X text 23 385 [part of intensity level];
#X connect 1 0 15 0;
#X connect 3 0 11 0;
#X connect 5 0 4 0;
#X connect 6 0 4 1;
#X connect 8 0 4 3;
#X connect 9 0 4 3;
#X connect 14 0 4 3;
#X connect 15 0 3 0;
#X connect 15 2 10 0;
#X connect 15 2 11 0;
