#N canvas 1188 0 713 776 12;
#X declare -lib mrpeach;
#X obj 14 14 import mrpeach;
#X obj 234 14 dumpOSC 9000;
#X obj 127 14 OSC;
#X obj 234 74 unpack i;
#N canvas 416 27 746 524 RobotControl 1;
#X obj -7855 16 inlet;
#X obj -7255 11 inlet;
#X obj -7746 16 inlet;
#X msg -7746 191 disconnect;
#X obj -7746 467 udpsend;
#X obj -7255 345 packOSC;
#X obj -7487 12 inlet;
#X obj -7597 371 packOSC;
#X msg -7255 262 send /motors \$1 \$2;
#X obj -7597 237 pack;
#X obj -7657 15 inlet;
#X msg -7597 346 send /motors \$1 \$2;
#X obj -7663 320 print;
#X obj -7487 122 expr $i1 + $i2;
#X obj -7657 132 expr $i1 + $i2;
#X obj -7366 11 inlet;
#X obj -7366 53 unpack;
#X msg -7855 258 connect 127.0.0.1 20000;
#X connect 0 0 17 0;
#X connect 1 0 8 0;
#X connect 2 0 3 0;
#X connect 3 0 4 0;
#X connect 5 0 4 0;
#X connect 6 0 13 0;
#X connect 7 0 4 0;
#X connect 8 0 5 0;
#X connect 9 0 11 0;
#X connect 10 0 14 0;
#X connect 11 0 7 0;
#X connect 13 0 9 1;
#X connect 14 0 9 0;
#X connect 15 0 16 0;
#X connect 16 0 14 1;
#X connect 16 1 13 1;
#X connect 17 0 4 0;
#X restore 317 731 pd RobotControl;
#X obj 297 695 bng 15 250 50 0 empty empty empty 17 7 0 10 -262144
-1 -1;
#X obj 322 695 bng 15 250 50 0 empty empty empty 17 7 0 10 -262144
-1 -1;
#X text 425 13 Subsumption case study v0.3;
#X obj 234 74 OSCroute /ultrasound /gyro /motor_state;
#X text 154 185 ------------------------------------------------------------
;
#X text 43 209 [Sensation level];
#X text 24 73 [part of intensity level];
#X text 23 584 [part of intensity level];
#X obj 523 343 bng 15 250 50 0 empty empty empty 17 7 0 10 -262144
-1 -1;
#N canvas 449 0 1192 542 Circle_Motion 0;
#X obj 68 -50 inlet;
#X obj 643 134 expr (63*$f1)/($f1+13);
#X obj 643 64 textfile;
#X msg 643 90 \$1;
#X msg 643 38 read radius.txt \, rewind \, bang;
#X obj 68 72 unpack i i;
#X obj 643 -53 inlet;
#X obj 339 448 outlet;
#X obj 339 371 pack;
#X msg 643 235 63 \$1;
#X obj 643 261 unpack;
#X obj 690 297 v [right]_circle_speed_reference;
#X obj 690 323 v [left]_circle_speed_reference;
#X text 937 296 <-- [static] original references;
#X text 812 411 <-- [dynamic] references used for reorganisation;
#X obj 512 330 bng 15 250 50 0 empty empty empty 17 7 0 10 -262144
-1 -1;
#X obj 616 453 print;
#X obj 219 250 print;
#X obj 599 387 v right_reorganisation_reference;
#X obj 567 415 v left_reorganisation_reference;
#X floatatom 643 208 20 0 0 0 - - -;
#X obj 643 183 int;
#X obj 643 158 + 0.4;
#X obj 319 217 expr $i1 \; $i2 \; if ($i1 == 0 && $i2 == 0 \, 0 \,
1);
#X obj 349 405 spigot;
#X obj 218 106 expr right_reorganisation_reference - $i1;
#X obj 33 153 expr left_reorganisation_reference - $i1;
#X connect 0 0 5 0;
#X connect 1 0 22 0;
#X connect 2 0 3 0;
#X connect 3 0 1 0;
#X connect 4 0 2 0;
#X connect 5 0 26 0;
#X connect 5 1 25 0;
#X connect 6 0 4 0;
#X connect 8 0 24 0;
#X connect 9 0 10 0;
#X connect 10 0 12 0;
#X connect 10 0 19 0;
#X connect 10 1 11 0;
#X connect 10 1 18 0;
#X connect 15 0 18 0;
#X connect 15 0 19 0;
#X connect 18 0 16 0;
#X connect 19 0 16 0;
#X connect 20 0 9 0;
#X connect 21 0 20 0;
#X connect 22 0 21 0;
#X connect 23 2 24 1;
#X connect 24 0 7 0;
#X connect 25 0 8 1;
#X connect 25 0 23 0;
#X connect 26 0 8 0;
#X connect 26 0 23 1;
#X restore 414 364 pd Circle_Motion;
#N canvas 803 32 949 785 Avoidance_Behaviour 0;
#X obj -6335 754 outlet;
#X floatatom -6872 59 10 0 0 0 - - -;
#X obj -6917 155 expr $f1 \; if ($f1 <= 65 && $f1 > 60 \, $f1 \, 0)
;
#X obj -6961 226 expr $f1 \; if ($f1 <= 60 && $f1 > 50 \, $f1 \, 0)
;
#X obj -6995 289 expr $f1 \; if ($f1 <= 50 && $f1 > 40 \, $f1 \, 0)
;
#X obj -7024 355 expr $f1 \; if ($f1 <= 40 && $f1 >= 35 \, $f1 \, 0)
;
#X obj -6873 89 expr $f1 \; if ($f1 <= 75 && $f1 > 65 \, $f1 \, 0)
;
#X obj -6638 132 moses 1;
#X obj -6592 163 bng 15 250 50 0 empty empty empty 17 7 0 10 -262144
-1 -1;
#X obj -6682 198 moses 1;
#X obj -6636 226 bng 15 250 50 0 empty empty empty 17 7 0 10 -262144
-1 -1;
#X obj -6726 269 moses 1;
#X obj -6680 298 bng 15 250 50 0 empty empty empty 17 7 0 10 -262144
-1 -1;
#X obj -6760 335 moses 1;
#X obj -6714 359 bng 15 250 50 0 empty empty empty 17 7 0 10 -262144
-1 -1;
#X obj -6782 398 moses 1;
#X obj -6736 425 bng 15 250 50 0 empty empty empty 17 7 0 10 -262144
-1 -1;
#X obj -7025 6 inlet;
#X obj -6475 406 unpack;
#X obj -6188 20 inlet;
#X obj -6188 490 unpack;
#X obj -6722 620 v [left]_avoidance_reference;
#X obj -6646 591 v [right]_avoidance_reference;
#X obj -6335 656 pack;
#X obj -6172 422 metro 100;
#X obj -6172 403 tgl 15 0 empty empty empty 17 7 0 10 -262144 -1 -1
0 1;
#X msg -6171 446 63 48.8793;
#X obj -6315 574 expr $f1 \; $f2 \; $f1 - $f2;
#X msg -6592 187 0 40;
#X msg -6636 250 0 35.75;
#X msg -6680 322 0 31.5;
#X msg -6713 383 0 27.25;
#X msg -6736 449 0 23;
#X obj -6272 178 print;
#X obj -6395 574 expr $f1 \; $f2 \; $f2 - $f1;
#X connect 2 1 9 0;
#X connect 3 1 11 0;
#X connect 4 1 13 0;
#X connect 5 1 15 0;
#X connect 6 1 7 0;
#X connect 7 1 8 0;
#X connect 8 0 28 0;
#X connect 9 1 10 0;
#X connect 10 0 29 0;
#X connect 11 1 12 0;
#X connect 12 0 30 0;
#X connect 13 1 14 0;
#X connect 14 0 31 0;
#X connect 15 1 16 0;
#X connect 16 0 32 0;
#X connect 17 0 1 0;
#X connect 17 0 2 0;
#X connect 17 0 3 0;
#X connect 17 0 4 0;
#X connect 17 0 5 0;
#X connect 17 0 6 0;
#X connect 18 0 21 0;
#X connect 18 0 34 0;
#X connect 18 0 23 0;
#X connect 18 1 22 0;
#X connect 18 1 27 0;
#X connect 19 0 20 0;
#X connect 20 0 34 1;
#X connect 20 1 27 1;
#X connect 23 0 0 0;
#X connect 24 0 26 0;
#X connect 25 0 24 0;
#X connect 26 0 20 0;
#X connect 27 2 23 1;
#X connect 28 0 18 0;
#X connect 29 0 18 0;
#X connect 30 0 18 0;
#X connect 31 0 18 0;
#X connect 32 0 18 0;
#X restore 234 364 pd Avoidance_Behaviour;
#N canvas 142 8 1051 687 systems_reorganisation 0;
#X obj -6817 11 inlet;
#X obj -6498 641 outlet;
#X obj -6119 8 inlet;
#X obj -6119 37 unpack i i;
#X obj -6441 641 outlet;
#X obj -6119 140 pack;
#X obj -6498 325 spigot;
#X obj -6498 578 unpack;
#X obj -6952 454 expr $f1 \; $f2 \; if ($f1 >= $f2 \, $f2 - 4.25 \,
0);
#X obj -6817 369 t b b;
#X obj -6271 369 t b b;
#X obj -6384 454 expr $f1 \; $f2 \; if ($f1 <= $f2 \, $f2 + 4.25 \,
0);
#X obj -6745 420 v [right]_reorganisation_reference;
#X obj -6177 420 v [right]_circle_speed_reference;
#X obj -6436 420 v [right]_reorganisation_reference;
#X obj -6982 420 v [right]_avoidance_reference;
#X obj -6222 579 v [right]_reorganisation_reference;
#X obj -6792 521 moses 1;
#X obj -6792 579 v [right]_avoidance_reference;
#X obj -6222 521 moses 1;
#X msg -6222 550 \$1;
#X msg -6792 550 \$1;
#X floatatom -6459 296 1 0 0 0 - - -;
#X obj -6459 274 tgl 15 0 empty empty empty 17 7 0 10 -262144 -1 -1
1 1;
#X obj -6489 196 bng 15 250 50 0 empty empty empty 17 7 0 10 -262144
-1 -1;
#X obj -6489 223 delay 2000;
#X obj -6489 248 1;
#X obj -6459 248 0;
#X msg -6422 194 800;
#X connect 0 0 7 0;
#X connect 0 0 24 0;
#X connect 0 0 9 0;
#X connect 2 0 3 0;
#X connect 3 0 5 0;
#X connect 3 1 5 1;
#X connect 5 0 6 0;
#X connect 6 0 7 0;
#X connect 6 0 10 0;
#X connect 7 0 1 0;
#X connect 7 1 4 0;
#X connect 8 2 17 0;
#X connect 9 0 15 0;
#X connect 9 1 12 0;
#X connect 10 0 14 0;
#X connect 10 1 13 0;
#X connect 11 2 19 0;
#X connect 12 0 8 1;
#X connect 13 0 11 1;
#X connect 14 0 11 0;
#X connect 15 0 8 0;
#X connect 17 1 21 0;
#X connect 19 1 20 0;
#X connect 20 0 16 0;
#X connect 21 0 18 0;
#X connect 22 0 6 1;
#X connect 23 0 22 0;
#X connect 24 0 25 0;
#X connect 24 0 27 0;
#X connect 25 0 26 0;
#X connect 26 0 23 0;
#X connect 27 0 23 0;
#X connect 28 0 25 1;
#X restore 234 535 pd systems_reorganisation;
#X obj 444 166 v left_wheel;
#X obj 444 107 unpack;
#X text 158 491 ------------------------------------------------------------
;
#X obj 261 271 metro 100;
#X obj 261 252 tgl 15 0 empty empty empty 17 7 0 10 -262144 -1 -1 0
1;
#X msg 261 295 76;
#X msg 446 676 0 -35;
#X msg 429 649 0 0;
#X obj 465 210 print;
#X text 495 306 set references for drive path;
#X obj 274 108 tgl 15 0 empty empty empty 17 7 0 10 -262144 -1 -1 0
1;
#X obj 274 127 metro 600;
#X obj 483 140 v right_wheel;
#X msg 458 705 63 47;
#X msg 274 152 63 49;
#X connect 1 0 8 0;
#X connect 3 0 15 0;
#X connect 5 0 4 0;
#X connect 6 0 4 1;
#X connect 8 0 3 0;
#X connect 8 2 14 0;
#X connect 8 2 15 1;
#X connect 8 2 4 4;
#X connect 13 0 14 1;
#X connect 14 0 16 1;
#X connect 15 0 16 0;
#X connect 16 0 4 2;
#X connect 16 1 4 3;
#X connect 18 0 17 0;
#X connect 18 1 29 0;
#X connect 20 0 22 0;
#X connect 21 0 20 0;
#X connect 22 0 15 0;
#X connect 23 0 4 5;
#X connect 24 0 4 5;
#X connect 27 0 28 0;
#X connect 28 0 31 0;
#X connect 30 0 4 5;
#X connect 31 0 18 0;
#X connect 31 0 14 0;
