#N canvas 1216 8 652 776 12;
#X declare -lib mrpeach;
#X obj 14 14 import mrpeach;
#X obj 234 30 dumpOSC 9000;
#X obj 127 14 OSC;
#X obj 234 80 unpack i;
#N canvas 282 9 912 551 RobotControl 0;
#X obj -7941 34 inlet;
#X obj -7193 35 inlet;
#X obj -7746 35 inlet;
#X msg -7746 191 disconnect;
#X obj -7746 467 udpsend;
#X obj -7265 356 packOSC;
#X msg -7941 189 connect 127.0.0.1 20000;
#X obj -7399 35 inlet;
#X obj -7489 373 packOSC;
#X msg -7193 268 send /motors \$1 \$2;
#X obj -7489 269 pack;
#X obj -7598 36 inlet;
#X msg -7489 348 send /motors \$1 \$2;
#X obj -7399 136 expr $f1 \; $f1 + right_wheel;
#X obj -7598 135 expr $f1 \; $f1 + left_wheel;
#X obj -7555 322 print;
#X connect 0 0 6 0;
#X connect 1 0 9 0;
#X connect 2 0 3 0;
#X connect 3 0 4 0;
#X connect 5 0 4 0;
#X connect 6 0 4 0;
#X connect 7 0 13 0;
#X connect 8 0 4 0;
#X connect 9 0 5 0;
#X connect 10 0 15 0;
#X connect 11 0 14 0;
#X connect 12 0 8 0;
#X connect 13 1 10 1;
#X connect 14 1 10 0;
#X restore 330 741 pd RobotControl;
#X obj 292 712 bng 15 250 50 0 empty empty empty 17 7 0 10 -262144
-1 -1;
#X obj 317 712 bng 15 250 50 0 empty empty empty 17 7 0 10 -262144
-1 -1;
#X text 425 13 Subsumption case study v0.3;
#X obj 234 57 OSCroute /ultrasound /gyro /motor_state;
#X text 154 185 ------------------------------------------------------------
;
#X text 43 209 [Sensation level];
#X text 24 73 [part of intensity level];
#X text 23 584 [part of intensity level];
#X obj 523 354 bng 15 250 50 0 empty empty empty 17 7 0 10 -262144
-1 -1;
#X text 469 334 set reference value;
#N canvas 373 90 993 537 Circle_Motion 0;
#X obj 18 -50 inlet;
#X floatatom 422 213 10 0 0 0 - - -;
#X obj 422 187 expr (63*$f1)/($f1+13);
#X obj 422 77 textfile;
#X msg 422 109 \$1;
#X msg 422 45 read radius.txt \, rewind \, bang;
#X obj -8 71 unpack i i;
#X obj 422 -60 inlet;
#X obj 58 -9 bng 15 250 50 0 empty empty empty 17 7 0 10 -262144 -1
-1;
#X obj 52 448 outlet;
#X obj 114 142 expr $f1 \; $f2 \; $f2 - $f1;
#X obj -8 141 expr $f1 \; $f2 \; $f2 - $f1;
#X obj 52 371 pack;
#X msg 422 238 63 \$1;
#X obj 423 267 unpack;
#X obj 346 415 v [left]_reorganisation_reference;
#X obj 469 300 v [right]_circle_speed_reference;
#X obj 469 325 v [left]_circle_speed_reference;
#X text 716 314 <-- [static] original references;
#X text 591 408 <-- [dynamic] references used for reorganisation;
#X obj 148 41 v [left]_reorganisation_reference;
#X obj 146 72 v [right]_reorganisation_reference;
#X obj 58 12 t b b;
#X obj 346 392 v [right]_reorganisation_reference;
#X obj 331 320 bng 15 250 50 0 empty empty empty 17 7 0 10 -262144
-1 -1;
#X obj 329 448 print;
#X connect 0 0 6 0;
#X connect 0 0 8 0;
#X connect 1 0 13 0;
#X connect 2 0 1 0;
#X connect 3 0 4 0;
#X connect 4 0 2 0;
#X connect 5 0 3 0;
#X connect 6 0 11 0;
#X connect 6 1 10 0;
#X connect 7 0 5 0;
#X connect 8 0 22 0;
#X connect 10 2 12 1;
#X connect 11 2 12 0;
#X connect 12 0 9 0;
#X connect 13 0 14 0;
#X connect 14 0 15 0;
#X connect 14 0 17 0;
#X connect 14 1 16 0;
#X connect 14 1 23 0;
#X connect 15 0 25 0;
#X connect 20 0 11 1;
#X connect 21 0 10 1;
#X connect 22 0 21 0;
#X connect 22 1 20 0;
#X connect 23 0 25 0;
#X connect 24 0 23 0;
#X connect 24 0 15 0;
#X restore 414 375 pd Circle_Motion;
#N canvas 210 0 1015 981 Avoidance_Behaviour 0;
#X obj -6361 1248 outlet;
#X floatatom -6651 19 10 0 0 0 - - -;
#X obj -6801 136 expr $f1 \; if ($f1 <= 65 && $f1 > 60 \, $f1 \, 0)
;
#X obj -6845 207 expr $f1 \; if ($f1 <= 60 && $f1 > 50 \, $f1 \, 0)
;
#X obj -6879 270 expr $f1 \; if ($f1 <= 50 && $f1 > 40 \, $f1 \, 0)
;
#X obj -6908 336 expr $f1 \; if ($f1 <= 40 && $f1 >= 35 \, $f1 \, 0)
;
#X obj -6757 70 expr $f1 \; if ($f1 <= 75 && $f1 > 65 \, $f1 \, 0)
;
#X obj -6522 113 moses 1;
#X obj -6476 139 bng 15 250 50 0 empty empty empty 17 7 0 10 -262144
-1 -1;
#X obj -6566 179 moses 1;
#X obj -6520 205 bng 15 250 50 0 empty empty empty 17 7 0 10 -262144
-1 -1;
#X obj -6610 250 moses 1;
#X obj -6564 276 bng 15 250 50 0 empty empty empty 17 7 0 10 -262144
-1 -1;
#X obj -6644 316 moses 1;
#X obj -6598 342 bng 15 250 50 0 empty empty empty 17 7 0 10 -262144
-1 -1;
#X obj -6666 379 moses 1;
#X obj -6620 405 bng 15 250 50 0 empty empty empty 17 7 0 10 -262144
-1 -1;
#X obj -7025 6 inlet;
#X msg -6564 297 63 31.5;
#X msg -6520 226 63 35.75;
#X msg -6476 160 63 40;
#X msg -6598 364 63 27.25;
#X msg -6620 426 63 23;
#X obj -6475 397 unpack;
#X obj -6188 5 inlet;
#X obj -6188 486 unpack;
#X obj -6279 857 spigot;
#X msg -6307 760 1 0;
#X obj -6307 791 unpack i i;
#X msg -6265 760 0 1;
#X obj -6307 729 route 1 0;
#X obj -6346 832 spigot;
#X obj -6149 801 bng 15 250 50 0 empty empty empty 17 7 0 10 -262144
-1 -1;
#X msg -6279 884 99 99;
#X obj -6475 452 expr $f1 \; $f2 \; if ($f1 != 0 || $f2 != 0 \, 1 \,
0);
#X obj -6795 457 moses 1;
#X obj -6279 1047 v [left]_avoidance_reference;
#X obj -6240 1024 v [right]_avoidance_reference;
#X obj -6279 911 unpack;
#X obj -6543 1004 v [left]_avoidance_reference;
#X obj -6467 975 v [right]_avoidance_reference;
#X obj -6420 900 unpack;
#X msg -6749 514 0 0;
#X obj -6749 490 bng 15 250 50 0 empty empty empty 17 7 0 10 -262144
-1 -1;
#X obj -6939 406 expr $f1 \; if ($f1 > 75 \, 1 \, 0);
#X obj -6361 1168 pack;
#X obj -6341 1086 expr $f1 \; $f2 \; $f1 - $f2;
#X obj -6421 1086 expr $f1 \; $f2 \; $f1 - $f2;
#X obj -6346 792 pack;
#X connect 2 1 9 0;
#X connect 3 1 11 0;
#X connect 4 1 13 0;
#X connect 5 1 15 0;
#X connect 6 1 7 0;
#X connect 7 1 8 0;
#X connect 8 0 20 0;
#X connect 9 1 10 0;
#X connect 10 0 19 0;
#X connect 11 1 12 0;
#X connect 12 0 18 0;
#X connect 13 1 14 0;
#X connect 14 0 21 0;
#X connect 15 1 16 0;
#X connect 16 0 22 0;
#X connect 17 0 1 0;
#X connect 17 0 2 0;
#X connect 17 0 3 0;
#X connect 17 0 4 0;
#X connect 17 0 5 0;
#X connect 17 0 6 0;
#X connect 17 0 44 0;
#X connect 18 0 23 0;
#X connect 19 0 23 0;
#X connect 20 0 23 0;
#X connect 21 0 23 0;
#X connect 22 0 23 0;
#X connect 23 0 34 0;
#X connect 23 0 48 0;
#X connect 23 1 34 1;
#X connect 23 1 48 1;
#X connect 24 0 25 0;
#X connect 25 0 47 1;
#X connect 25 1 32 0;
#X connect 25 1 46 1;
#X connect 26 0 33 0;
#X connect 27 0 28 0;
#X connect 28 0 31 1;
#X connect 28 1 26 1;
#X connect 29 0 28 0;
#X connect 30 0 27 0;
#X connect 30 1 29 0;
#X connect 31 0 41 0;
#X connect 32 0 26 0;
#X connect 33 0 38 0;
#X connect 34 2 30 0;
#X connect 35 1 43 0;
#X connect 38 0 36 0;
#X connect 38 1 37 0;
#X connect 41 0 39 0;
#X connect 41 0 47 0;
#X connect 41 1 40 0;
#X connect 41 1 46 0;
#X connect 42 0 23 0;
#X connect 43 0 42 0;
#X connect 44 1 35 0;
#X connect 45 0 0 0;
#X connect 46 2 45 1;
#X connect 47 2 45 0;
#X connect 48 0 31 0;
#X restore 234 375 pd Avoidance_Behaviour;
#N canvas 259 10 1069 910 systems_reorganisation 1;
#X obj -6841 -143 inlet;
#X obj -6515 725 outlet;
#X obj -6137 -139 inlet;
#X obj -6137 -110 unpack i i;
#X obj -6841 -113 unpack i i;
#X obj -6458 725 outlet;
#X obj -6841 224 pack;
#X obj -6094 232 pack;
#X obj -6448 330 spigot;
#X msg -6476 259 1 0;
#X obj -6476 290 unpack i i;
#X msg -6434 259 0 1;
#X obj -6476 228 route 1 0;
#X obj -6515 331 spigot;
#X obj -6515 652 unpack;
#X obj -6969 538 expr $f1 \; $f2 \; if ($f1 >= $f2 \, $f2 - 4.25 \,
0);
#X obj -6834 453 t b b;
#X obj -6288 451 t b b;
#X obj -6401 538 expr $f1 \; $f2 \; if ($f1 <= $f2 \, $f2 + 4.25 \,
0);
#X obj -6762 505 v [right]_reorganisation_reference;
#X obj -6387 51 v [left]_reorganisation_reference;
#X obj -6428 26 v [right]_reorganisation_reference;
#X obj -6695 13 v [left]_avoidance_reference;
#X obj -6656 39 v [right]_avoidance_reference;
#X obj -6507 -58 t b b b b;
#X obj -6194 504 v [right]_circle_speed_reference;
#X obj -6453 502 v [right]_reorganisation_reference;
#X obj -6999 504 v [right]_avoidance_reference;
#X obj -6651 107 expr $f1 \; $f2 \; $f3 \; $f4 \; if ($f1 >= $f2 &&
$f3 >= $f4 \, 0 \, 1);
#X obj -6239 656 v [right]_reorganisation_reference;
#X obj -6809 605 moses 1;
#X obj -6809 662 v [right]_avoidance_reference;
#X obj -6239 599 moses 1;
#X msg -6239 628 \$1;
#X msg -6809 634 \$1;
#X connect 0 0 4 0;
#X connect 2 0 3 0;
#X connect 2 0 24 0;
#X connect 3 0 7 0;
#X connect 3 1 7 1;
#X connect 4 0 6 0;
#X connect 4 1 6 1;
#X connect 6 0 13 0;
#X connect 7 0 8 0;
#X connect 8 0 14 0;
#X connect 8 0 17 0;
#X connect 9 0 10 0;
#X connect 10 0 13 1;
#X connect 10 1 8 1;
#X connect 11 0 10 0;
#X connect 12 0 9 0;
#X connect 12 1 11 0;
#X connect 13 0 14 0;
#X connect 13 0 16 0;
#X connect 14 0 1 0;
#X connect 14 1 5 0;
#X connect 15 2 30 0;
#X connect 16 0 27 0;
#X connect 16 1 19 0;
#X connect 17 0 26 0;
#X connect 17 1 25 0;
#X connect 18 2 32 0;
#X connect 19 0 15 1;
#X connect 20 0 28 1;
#X connect 21 0 28 3;
#X connect 22 0 28 0;
#X connect 23 0 28 2;
#X connect 24 0 22 0;
#X connect 24 1 23 0;
#X connect 24 2 21 0;
#X connect 24 3 20 0;
#X connect 25 0 18 1;
#X connect 26 0 18 0;
#X connect 27 0 15 0;
#X connect 28 4 12 0;
#X connect 30 1 34 0;
#X connect 32 1 33 0;
#X connect 33 0 29 0;
#X connect 34 0 31 0;
#X restore 234 535 pd systems_reorganisation;
#X obj 483 140 v right_wheel;
#X obj 444 166 v left_wheel;
#X obj 444 107 unpack;
#X text 158 491 ------------------------------------------------------------
;
#X obj 261 276 metro 100;
#X obj 261 252 tgl 15 0 empty empty empty 17 7 0 10 -262144 -1 -1 0
1;
#X msg 253 323 76;
#X msg 437 687 0 -35;
#X msg 422 663 0 0;
#X msg 451 715 63 48.8793;
#X obj 514 95 bng 15 250 50 0 empty empty empty 17 7 0 10 -262144 -1
-1;
#X obj 465 215 print;
#X connect 1 0 8 0;
#X connect 3 0 16 0;
#X connect 5 0 4 0;
#X connect 6 0 4 1;
#X connect 8 0 3 0;
#X connect 8 2 15 0;
#X connect 8 2 16 1;
#X connect 8 2 20 0;
#X connect 13 0 15 1;
#X connect 15 0 17 1;
#X connect 16 0 17 0;
#X connect 17 0 4 2;
#X connect 17 1 4 3;
#X connect 18 0 29 0;
#X connect 19 0 29 0;
#X connect 20 0 19 0;
#X connect 20 1 18 0;
#X connect 22 0 24 0;
#X connect 23 0 22 0;
#X connect 24 0 16 0;
#X connect 25 0 4 4;
#X connect 26 0 4 4;
#X connect 27 0 4 4;
#X connect 28 0 18 0;
#X connect 28 0 19 0;
