#N canvas 887 49 838 600 16;
#X msg 501 147 send /motorForward 1 \$1;
#X floatatom 333 270 5 0 0 0 - - -;
#X floatatom 436 270 5 0 0 0 - - -;
#X floatatom 398 44 5 0 0 0 - - -;
#X floatatom 371 124 5 0 0 0 - - -;
#X msg 73 141 disconnect;
#X msg 65 78 connect 192.168.1.4 20000;
#X obj 349 211 sendOSC;
#X msg 502 99 send /motorForward 2 \$1;
#X connect 0 0 7 0;
#X connect 3 0 8 0;
#X connect 4 0 0 0;
#X connect 5 0 7 0;
#X connect 6 0 7 0;
#X connect 7 0 1 0;
#X connect 7 1 2 0;
#X connect 8 0 7 0;
