#N canvas 1428 175 431 491 16;
#X obj 186 25 OSC;
#X obj 186 135 OSCroute /buttonState;
#X obj 186 80 dumpOSC 20000;
#X obj 271 188 unpack;
#X floatatom 328 260 5 0 0 0 - - -;
#N canvas 680 163 703 546 motorControl 1;
#X msg -7688 357 send /motorForward 1 \$1;
#X floatatom -7875 436 5 0 0 0 - - -;
#X floatatom -7808 435 5 0 0 0 - - -;
#X floatatom -7748 144 5 0 0 0 - - -;
#X floatatom -7828 144 5 0 0 0 - - -;
#X msg -7941 299 disconnect;
#X obj -7875 394 sendOSC;
#X msg -7688 328 send /motorForward 2 \$1;
#X msg -8041 257 connect 192.168.1.4 10000;
#X obj -8041 200 inlet;
#X obj -7828 86 inlet;
#X msg -7571 120 send /motorBrake 1;
#X msg -7571 150 send /motorBrake 2;
#X obj -7613 86 inlet;
#X obj -7941 199 inlet;
#X connect 0 0 6 0;
#X connect 3 0 7 0;
#X connect 4 0 0 0;
#X connect 5 0 6 0;
#X connect 6 0 1 0;
#X connect 6 1 2 0;
#X connect 7 0 6 0;
#X connect 8 0 6 0;
#X connect 9 0 8 0;
#X connect 10 0 4 0;
#X connect 10 0 3 0;
#X connect 11 0 6 0;
#X connect 12 0 6 0;
#X connect 13 0 11 0;
#X connect 13 0 12 0;
#X connect 14 0 5 0;
#X restore 55 440 pd motorControl;
#X obj 276 320 moses 1;
#X floatatom 153 399 5 0 0 0 - - -;
#X obj 55 401 tgl 15 0 empty empty empty 17 7 0 10 -262144 -1 -1 0
1;
#X obj 104 401 tgl 15 0 empty empty empty 17 7 0 10 -262144 -1 -1 0
1;
#X connect 1 0 3 0;
#X connect 2 0 1 0;
#X connect 3 1 4 0;
#X connect 4 0 6 0;
#X connect 6 1 5 3;
#X connect 7 0 5 2;
#X connect 8 0 5 0;
#X connect 9 0 5 1;
