#N canvas 881 58 761 554 16;
#X msg 353 412 send /motorForward 1 \$1;
#X floatatom 184 512 5 0 0 0 - - -;
#X floatatom 287 512 5 0 0 0 - - -;
#X floatatom 343 202 5 0 0 0 - - -;
#X floatatom 263 202 5 0 0 0 - - -;
#X msg 150 357 disconnect;
#X obj 200 453 sendOSC;
#X msg 353 357 send /motorForward 2 \$1;
#X obj 513 10 OSC;
#X obj 513 120 OSCroute /buttonState;
#X floatatom 263 161 5 0 0 0 - - -;
#X obj 513 65 dumpOSC 20000;
#X msg 23 322 connect 192.168.1.4 10000;
#X obj 598 173 unpack;
#X floatatom 604 247 5 0 0 0 - - -;
#X connect 0 0 6 0;
#X connect 3 0 7 0;
#X connect 4 0 0 0;
#X connect 5 0 6 0;
#X connect 6 0 1 0;
#X connect 6 1 2 0;
#X connect 7 0 6 0;
#X connect 9 0 13 0;
#X connect 10 0 4 0;
#X connect 10 0 3 0;
#X connect 11 0 9 0;
#X connect 12 0 6 0;
#X connect 13 1 14 0;
