#N canvas 585 127 618 544 24;
#X floatatom 114 209 5 0 0 0 - - -;
#X floatatom 114 292 5 0 0 0 - - -;
#N canvas 1222 127 607 544 Rand-factor 0;
#X obj 290 282 +;
#X floatatom 260 207 5 0 0 0 - - -;
#X floatatom 326 242 5 0 0 0 - - -;
#X floatatom 290 334 5 0 0 0 - - -;
#X obj 290 425 outlet;
#X obj 280 27 inlet;
#X obj 280 125 moses 5;
#X connect 0 0 3 0;
#X connect 1 0 0 0;
#X connect 2 0 0 1;
#X connect 3 0 4 0;
#X connect 5 0 6 0;
#X connect 6 1 1 0;
#X restore 114 252 pd Rand-factor;
#X obj 114 52 tgl 15 0 empty empty empty 17 7 0 10 -262144 -1 -1 0
1;
#X obj 114 95 metro 300;
#X obj 114 144 random 10;
#X obj 331 57 tgl 15 0 empty empty empty 17 7 0 10 -262144 -1 -1 0
1;
#X msg 331 180 Hello World;
#X obj 331 239 print;
#X obj 331 120 metro 200;
#X connect 0 0 2 0;
#X connect 2 0 1 0;
#X connect 3 0 4 0;
#X connect 4 0 5 0;
#X connect 5 0 0 0;
#X connect 6 0 9 0;
#X connect 7 0 8 0;
#X connect 9 0 7 0;
