#N canvas 793 12 531 789 16;
#X obj 17 16 OSC;
#X obj 17 48 dumpOSC 20000;
#X obj 136 137 unpack;
#X floatatom 232 203 5 0 0 0 - - -;
#N canvas 1117 10 726 496 RobotControl 0;
#X floatatom -7606 418 5 0 0 0 - - -;
#X floatatom -7539 418 5 0 0 0 - - -;
#X msg -7742 237 disconnect;
#X obj -7606 387 sendOSC;
#X obj -7947 16 inlet;
#X obj -7657 17 inlet;
#X obj -7546 17 inlet;
#X obj -7862 16 inlet;
#X msg -7947 185 connect YMG 10000;
#X floatatom -7657 67 5 0 0 0 - - -;
#X obj -7778 16 inlet;
#X msg -7499 263 send /motorForward 1 \$1;
#X msg -7500 229 send /motorForward 2 \$1;
#X connect 2 0 3 0;
#X connect 3 0 0 0;
#X connect 3 1 1 0;
#X connect 4 0 8 0;
#X connect 5 0 9 0;
#X connect 6 0 3 0;
#X connect 7 0 2 0;
#X connect 8 0 3 0;
#X connect 9 0 12 0;
#X connect 9 0 11 0;
#X connect 10 0 11 0;
#X connect 11 0 3 0;
#X connect 12 0 3 0;
#X restore 152 674 pd RobotControl;
#X obj 232 234 moses 1;
#X msg 345 619 0;
#X msg 322 563 -40;
#X obj 152 631 bng 15 250 50 0 empty empty empty 17 7 0 10 -262144
-1 -1;
#X obj 188 631 bng 15 250 50 0 empty empty empty 17 7 0 10 -262144
-1 -1;
#X msg 337 590 40;
#X msg 228 566 0;
#X msg 209 534 -40;
#X msg 241 604 40;
#X obj 232 171 print;
#N canvas 1342 11 551 796 AvoidanceBehaviour 1;
#X obj -7637 11 inlet;
#X obj -7606 754 outlet;
#X floatatom -7637 237 5 0 0 0 - - -;
#X msg -7766 457 send /motorBrake 2;
#X msg -7766 493 send /motorBrake 1;
#X obj -7637 11 inlet;
#X obj -7606 754 outlet;
#X floatatom -7637 237 5 0 0 0 - - -;
#X msg -7766 457 send /motorBrake 2;
#X msg -7766 493 send /motorBrake 1;
#X obj -7445 383 delay 1500;
#X floatatom -7637 159 5 0 0 0 - - -;
#X obj -7637 58 bng 15 250 50 0 empty empty empty 17 7 0 10 -262144
-1 -1;
#X obj -7637 117 counter;
#X obj -7445 357 bng 15 250 50 0 empty empty empty 17 7 0 10 -262144
-1 -1;
#X obj -7637 276 sel 0 1 2 3;
#X obj -7637 197 % 4;
#X msg -7504 423 send /motorForward 2 0;
#X msg -7504 453 send /motorForward 1 0;
#X msg -7504 544 send /motorForward 2 25;
#X msg -7504 629 send /motorForward 2 -25;
#X msg -7504 659 send /motorForward 1 -25;
#X connect 0 0 12 0;
#X connect 2 0 15 0;
#X connect 3 0 1 0;
#X connect 4 0 1 0;
#X connect 8 0 6 0;
#X connect 9 0 6 0;
#X connect 10 0 12 0;
#X connect 11 0 16 0;
#X connect 12 0 13 0;
#X connect 13 0 11 0;
#X connect 14 0 10 0;
#X connect 15 0 14 0;
#X connect 15 0 3 0;
#X connect 15 0 4 0;
#X connect 15 1 14 0;
#X connect 15 1 20 0;
#X connect 15 1 21 0;
#X connect 15 2 14 0;
#X connect 15 2 19 0;
#X connect 15 3 17 0;
#X connect 15 3 18 0;
#X connect 16 0 2 0;
#X connect 17 0 1 0;
#X connect 18 0 1 0;
#X connect 19 0 6 0;
#X connect 20 0 6 0;
#X connect 21 0 1 0;
#X restore 92 397 pd AvoidanceBehaviour;
#X floatatom 374 209 5 0 0 0 - - -;
#X text 113 503 turning rigt wheel only;
#X text 322 533 control both wheels;
#X text 93 367 maneuvering layer;
#X text 201 15 Subsumption case study v0.2;
#X obj 388 175 print;
#X obj 317 137 unpack;
#X obj 17 80 OSCroute /buttonState /motorTachoCount1;
#X connect 1 0 23 0;
#X connect 2 1 3 0;
#X connect 2 1 14 0;
#X connect 3 0 5 0;
#X connect 5 1 15 1;
#X connect 6 0 4 3;
#X connect 7 0 4 3;
#X connect 8 0 4 0;
#X connect 9 0 4 1;
#X connect 10 0 4 3;
#X connect 11 0 4 2;
#X connect 12 0 4 2;
#X connect 13 0 4 2;
#X connect 15 1 4 4;
#X connect 22 1 16 0;
#X connect 22 1 21 0;
#X connect 23 0 2 0;
#X connect 23 1 22 0;
