#N canvas 571 63 650 668 12;
#X declare -lib mrpeach;
#X obj 26 32 import mrpeach;
#X obj 191 77 dumpOSC 9000;
#X obj 190 38 OSC;
#X obj 191 113 OSCroute /touch /distance;
#X obj 191 147 unpack i;
#X obj 277 149 unpack i;
#N canvas 614 86 535 551 RobotControl 0;
#X obj -7984 18 inlet;
#X obj -7607 16 inlet;
#X obj -7790 16 inlet;
#X floatatom -7607 66 5 0 0 0 - - -;
#X msg -7790 217 disconnect;
#X obj -7758 434 udpsend;
#X obj -7679 394 packOSC;
#X msg -7984 156 connect 127.0.0.1 20000;
#X msg -7607 306 send /motors \$1 \$1;
#X obj -7689 16 inlet;
#X obj -7666 138 print;
#X obj -7689 293 packOSC;
#X msg -7666 96 \$1 \$2;
#X connect 0 0 7 0;
#X connect 1 0 3 0;
#X connect 2 0 4 0;
#X connect 3 0 8 0;
#X connect 4 0 5 0;
#X connect 6 0 5 0;
#X connect 7 0 5 0;
#X connect 8 0 6 0;
#X connect 9 0 12 0;
#X connect 11 0 5 0;
#X connect 12 0 10 0;
#X restore 237 548 pd RobotControl;
#X msg 378 477 0;
#X obj 237 503 bng 15 250 50 0 empty empty empty 17 7 0 10 -262144
-1 -1;
#X obj 271 503 bng 15 250 50 0 empty empty empty 17 7 0 10 -262144
-1 -1;
#X text 321 397 control both wheels;
#X text 400 22 Subsumption case study v0.2;
#N canvas 699 39 508 796 AvoidanceBehaviour 0;
#X obj -7492 16 inlet;
#X obj -7461 759 outlet;
#X floatatom -7492 242 5 0 0 0 - - -;
#X obj -7492 16 inlet;
#X obj -7461 759 outlet;
#X floatatom -7492 242 5 0 0 0 - - -;
#X obj -7340 208 delay 1500;
#X floatatom -7492 164 5 0 0 0 - - -;
#X obj -7492 63 bng 15 250 50 0 empty empty empty 17 7 0 10 -262144
-1 -1;
#X obj -7492 122 counter;
#X obj -7340 182 bng 15 250 50 0 empty empty empty 17 7 0 10 -262144
-1 -1;
#X obj -7492 281 sel 0 1 2 3;
#X obj -7492 202 % 4;
#X text -7393 153 Recursive calls to different steps;
#X msg -7507 525 -50 -50;
#X msg -7284 374 0 0;
#X msg -7286 599 0 60;
#X msg -7570 379 10 10;
#X connect 0 0 8 0;
#X connect 2 0 11 0;
#X connect 6 0 8 0;
#X connect 7 0 12 0;
#X connect 8 0 9 0;
#X connect 9 0 7 0;
#X connect 10 0 6 0;
#X connect 11 0 10 0;
#X connect 11 0 17 0;
#X connect 11 1 10 0;
#X connect 11 1 14 0;
#X connect 11 2 10 0;
#X connect 11 2 16 0;
#X connect 11 3 15 0;
#X connect 12 0 2 0;
#X connect 14 0 4 0;
#X connect 15 0 1 0;
#X connect 16 0 4 0;
#X connect 17 0 1 0;
#X restore 305 301 pd AvoidanceBehaviour;
#X floatatom 191 195 5 0 0 0 - - -;
#X obj 191 226 moses 1;
#X text 313 323 [Layer 0] maneuver;
#X msg 370 448 75;
#X msg 355 421 -75;
#X connect 1 0 3 0;
#X connect 3 0 4 0;
#X connect 3 1 5 0;
#X connect 4 0 13 0;
#X connect 7 0 6 3;
#X connect 8 0 6 0;
#X connect 9 0 6 1;
#X connect 12 0 6 2;
#X connect 13 0 14 0;
#X connect 14 1 12 1;
#X connect 16 0 6 3;
#X connect 17 0 6 3;
